M48
; DRILL file {KiCad 6.0.11-2627ca5db0~126~ubuntu22.04.1} date dom 05 feb 2023 10:51:01
; FORMAT={-:-/ absolute / inch / decimal}
; #@! TF.CreationDate,2023-02-05T10:51:01+01:00
; #@! TF.GenerationSoftware,Kicad,Pcbnew,6.0.11-2627ca5db0~126~ubuntu22.04.1
; #@! TF.FileFunction,Plated,1,2,PTH
FMAT,2
INCH
; #@! TA.AperFunction,Plated,PTH,ViaDrill
T1C0.0157
; #@! TA.AperFunction,Plated,PTH,ComponentDrill
T2C0.0295
; #@! TA.AperFunction,Plated,PTH,ComponentDrill
T3C0.0300
; #@! TA.AperFunction,Plated,PTH,ComponentDrill
T4C0.0315
; #@! TA.AperFunction,Plated,PTH,ComponentDrill
T5C0.0394
; #@! TA.AperFunction,Plated,PTH,ComponentDrill
T6C0.0433
%
G90
G05
T1
X3.31Y-1.9
X3.375Y-3.55
X3.825Y-3.005
X3.9728Y-3.1594
X4.1067Y-4.3239
X4.2Y-4.575
X4.35Y-4.1
X4.43Y-3.4154
X4.4412Y-2.8989
X4.4714Y-3.796
X4.5Y-2.65
X4.5231Y-3.9097
X4.525Y-3.825
X4.55Y-3.675
X4.55Y-3.75
X4.57Y-4.2629
X4.6Y-4.125
X4.62Y-4.0537
X4.65Y-4.225
X4.8Y-4.025
X4.8688Y-3.9405
X4.9Y-2.6
X4.9Y-3.825
X4.95Y-3.75
X4.9537Y-4.1626
X4.9548Y-4.2032
X4.9968Y-2.8989
X5.05Y-3.75
X5.15Y-3.05
X5.15Y-3.15
X5.2Y-3.775
X5.2Y-4.6
X5.3Y-3.85
X5.35Y-3.775
X5.4Y-3.7297
X5.4648Y-3.9097
X5.55Y-4.6
X5.65Y-4.025
X5.75Y-3.75
X5.85Y-3.69
X5.85Y-4.31
X5.8792Y-3.9405
X5.8826Y-3.4786
X5.95Y-3.5
X6.0213Y-4.025
X6.1Y-4.31
X6.11Y-4.01
X6.15Y-3.1
X6.15Y-3.5
X6.1941Y-4.0059
X6.2Y-3.7
X6.25Y-4.6
X6.26Y-3.45
X6.3Y-3.7
X6.35Y-4.6
X6.3542Y-3.3452
X6.45Y-3.4
X6.527Y-4.1286
X6.5484Y-3.5168
X6.5941Y-4.0632
X6.7002Y-4.2798
X6.7433Y-2.6318
X6.78Y-2.84
X6.86Y-3.6
X6.892Y-3.3
X6.9646Y-3.982
X6.9664Y-3.6688
X7.08Y-4.36
X7.13Y-4.4
T2
X4.3Y-3.85
X4.35Y-3.85
X4.4Y-3.85
T3
X6.53Y-4.31
X6.8056Y-4.31
T4
X3.4506Y-2.05
X3.4506Y-2.15
X3.4506Y-2.25
X3.4506Y-2.35
X3.4506Y-2.45
X3.4506Y-2.55
X3.4506Y-2.65
X3.4506Y-2.75
X3.6516Y-1.8
X3.75Y-1.8
X3.7506Y-2.05
X3.7506Y-2.15
X3.7506Y-2.25
X3.7506Y-2.35
X3.7506Y-2.45
X3.7506Y-2.55
X3.7506Y-2.65
X3.7506Y-2.75
X3.9Y-2.05
X3.9Y-2.15
X3.9Y-2.25
X3.9Y-2.35
X3.9Y-2.45
X3.9Y-2.55
X3.9Y-2.65
X3.9Y-2.75
X4.07Y-2.9594
X4.07Y-3.0594
X4.07Y-3.1594
X4.07Y-3.2594
X4.07Y-3.3594
X4.07Y-3.4594
X4.07Y-3.5594
X4.07Y-3.6594
X4.2Y-2.05
X4.2Y-2.15
X4.2Y-2.25
X4.2Y-2.35
X4.2Y-2.45
X4.2Y-2.55
X4.2Y-2.65
X4.2Y-2.75
X4.275Y-4.0516
X4.275Y-4.15
X4.35Y-2.05
X4.35Y-2.15
X4.35Y-2.25
X4.35Y-2.35
X4.35Y-2.45
X4.35Y-2.55
X4.35Y-2.65
X4.35Y-2.75
X4.37Y-2.9594
X4.37Y-3.0594
X4.37Y-3.1594
X4.37Y-3.2594
X4.37Y-3.3594
X4.37Y-3.4594
X4.37Y-3.5594
X4.37Y-3.6594
X4.4Y-4.29
X4.65Y-2.05
X4.65Y-2.15
X4.65Y-2.25
X4.65Y-2.35
X4.65Y-2.45
X4.65Y-2.55
X4.65Y-2.65
X4.65Y-2.75
X4.7Y-4.29
X4.7256Y-2.96
X4.7256Y-3.06
X4.7256Y-3.16
X4.7256Y-3.26
X4.7256Y-3.36
X4.7256Y-3.46
X4.7256Y-3.56
X4.7256Y-3.66
X4.79Y-2.05
X4.79Y-2.15
X4.79Y-2.25
X4.79Y-2.35
X4.79Y-2.45
X4.79Y-2.55
X4.79Y-2.65
X4.79Y-2.75
X5.0256Y-2.96
X5.0256Y-3.06
X5.0256Y-3.16
X5.0256Y-3.26
X5.0256Y-3.36
X5.0256Y-3.46
X5.0256Y-3.56
X5.0256Y-3.66
X5.09Y-2.05
X5.09Y-2.15
X5.09Y-2.25
X5.09Y-2.35
X5.09Y-2.45
X5.09Y-2.55
X5.09Y-2.65
X5.09Y-2.75
X5.24Y-2.05
X5.24Y-2.15
X5.24Y-2.25
X5.24Y-2.35
X5.24Y-2.45
X5.24Y-2.55
X5.24Y-2.65
X5.24Y-2.75
X5.3Y-3.0
X5.3Y-3.6
X5.4Y-3.0
X5.4Y-3.6
X5.5Y-3.0
X5.5Y-3.6
X5.54Y-2.05
X5.54Y-2.15
X5.54Y-2.25
X5.54Y-2.35
X5.54Y-2.45
X5.54Y-2.55
X5.54Y-2.65
X5.54Y-2.75
X5.6Y-3.0
X5.6Y-3.6
X5.7Y-2.05
X5.7Y-2.15
X5.7Y-2.25
X5.7Y-2.35
X5.7Y-2.45
X5.7Y-2.55
X5.7Y-2.65
X5.7Y-2.75
X5.7Y-3.0
X5.7Y-3.6
X5.8Y-3.0
X5.8Y-3.6
X5.9Y-3.0
X5.9Y-3.6
X6.0Y-2.05
X6.0Y-2.15
X6.0Y-2.25
X6.0Y-2.35
X6.0Y-2.45
X6.0Y-2.55
X6.0Y-2.65
X6.0Y-2.75
X6.0Y-3.0
X6.0Y-3.6
X6.0498Y-3.9
X6.0498Y-4.2
X6.1Y-3.0
X6.1Y-3.6
X6.1498Y-3.9
X6.1498Y-4.2
X6.16Y-2.05
X6.16Y-2.15
X6.16Y-2.25
X6.16Y-2.35
X6.16Y-2.45
X6.16Y-2.55
X6.16Y-2.65
X6.16Y-2.75
X6.2Y-3.0
X6.2Y-3.6
X6.2498Y-3.9
X6.2498Y-4.2
X6.3Y-3.0
X6.3Y-3.6
X6.3498Y-3.9
X6.3498Y-4.2
X6.4Y-3.0
X6.4Y-3.6
X6.4498Y-3.9
X6.4498Y-4.2
X6.46Y-2.05
X6.46Y-2.15
X6.46Y-2.25
X6.46Y-2.35
X6.46Y-2.45
X6.46Y-2.55
X6.46Y-2.65
X6.46Y-2.75
X6.5Y-3.0
X6.5Y-3.6
X6.5281Y-3.76
X6.5498Y-3.9
X6.5498Y-4.2
X6.6Y-3.0
X6.6Y-3.6
X6.6206Y-2.0494
X6.6206Y-2.1494
X6.6206Y-2.2494
X6.6206Y-2.3494
X6.6206Y-2.4494
X6.6206Y-2.5494
X6.6206Y-2.6494
X6.6206Y-2.7494
X6.6498Y-3.9
X6.6498Y-4.2
X6.725Y-3.76
X6.74Y-3.0
X6.74Y-3.1
X6.74Y-3.2
X6.74Y-3.3
X6.74Y-3.4
X6.74Y-3.5
X6.74Y-3.6
X6.7498Y-3.9
X6.7498Y-4.2
X6.7816Y-1.8
X6.8498Y-3.9
X6.8498Y-4.2
X6.85Y-3.76
X6.88Y-1.8
X6.9206Y-2.0494
X6.9206Y-2.1494
X6.9206Y-2.2494
X6.9206Y-2.3494
X6.9206Y-2.4494
X6.9206Y-2.5494
X6.9206Y-2.6494
X6.9206Y-2.7494
X6.9498Y-3.9
X6.9498Y-4.2
X6.95Y-3.76
X7.04Y-3.0
X7.04Y-3.1
X7.04Y-3.2
X7.04Y-3.3
X7.04Y-3.4
X7.04Y-3.5
X7.04Y-3.6
X7.075Y-2.375
X7.075Y-2.775
T5
X3.35Y-3.775
X3.65Y-4.4
X3.65Y-4.5
X3.75Y-4.4
X3.75Y-4.5
X3.85Y-4.4
X3.85Y-4.5
X3.9406Y-3.775
X3.95Y-4.4
X3.95Y-4.5
X4.05Y-4.4
X4.05Y-4.5
X4.15Y-4.4
X4.15Y-4.5
X4.25Y-4.4
X4.25Y-4.5
X4.35Y-4.4
X4.35Y-4.5
X4.45Y-4.4
X4.45Y-4.5
X4.55Y-4.4
X4.55Y-4.5
X4.65Y-4.4
X4.65Y-4.5
X4.75Y-4.4
X4.75Y-4.5
X4.85Y-4.4
X4.85Y-4.5
X4.95Y-4.4
X4.95Y-4.5
X5.05Y-4.4
X5.05Y-4.5
X5.15Y-4.4
X5.15Y-4.5
X5.25Y-4.4
X5.25Y-4.5
X5.35Y-4.4
X5.35Y-4.5
X5.45Y-4.4
X5.45Y-4.5
X5.55Y-4.4
X5.55Y-4.5
X5.65Y-4.4
X5.65Y-4.5
X5.75Y-4.4
X5.75Y-4.5
X5.85Y-4.4
X5.85Y-4.5
X5.95Y-4.4
X5.95Y-4.5
X6.05Y-4.4
X6.05Y-4.5
X6.15Y-4.4
X6.15Y-4.5
X6.25Y-4.4
X6.25Y-4.5
X6.35Y-4.4
X6.35Y-4.5
X6.45Y-4.4
X6.45Y-4.5
X6.55Y-4.4
X6.55Y-4.5
X6.65Y-4.4
X6.65Y-4.5
X6.75Y-4.4
X6.75Y-4.5
T6
X3.35Y-4.0
X3.35Y-4.1
X3.35Y-4.2
T0
M30
