%TF.GenerationSoftware,KiCad,Pcbnew,6.0.11-2627ca5db0~126~ubuntu22.04.1*%
%TF.CreationDate,2023-02-05T10:50:59+01:00*%
%TF.ProjectId,ramrom,72616d72-6f6d-42e6-9b69-6361645f7063,0.0*%
%TF.SameCoordinates,Original*%
%TF.FileFunction,Copper,L2,Bot*%
%TF.FilePolarity,Positive*%
%FSLAX46Y46*%
G04 Gerber Fmt 4.6, Leading zero omitted, Abs format (unit mm)*
G04 Created by KiCad (PCBNEW 6.0.11-2627ca5db0~126~ubuntu22.04.1) date 2023-02-05 10:50:59*
%MOMM*%
%LPD*%
G01*
G04 APERTURE LIST*
G04 Aperture macros list*
%AMRoundRect*
0 Rectangle with rounded corners*
0 $1 Rounding radius*
0 $2 $3 $4 $5 $6 $7 $8 $9 X,Y pos of 4 corners*
0 Add a 4 corners polygon primitive as box body*
4,1,4,$2,$3,$4,$5,$6,$7,$8,$9,$2,$3,0*
0 Add four circle primitives for the rounded corners*
1,1,$1+$1,$2,$3*
1,1,$1+$1,$4,$5*
1,1,$1+$1,$6,$7*
1,1,$1+$1,$8,$9*
0 Add four rect primitives between the rounded corners*
20,1,$1+$1,$2,$3,$4,$5,0*
20,1,$1+$1,$4,$5,$6,$7,0*
20,1,$1+$1,$6,$7,$8,$9,0*
20,1,$1+$1,$8,$9,$2,$3,0*%
G04 Aperture macros list end*
%TA.AperFunction,ComponentPad*%
%ADD10R,1.600000X1.600000*%
%TD*%
%TA.AperFunction,ComponentPad*%
%ADD11O,1.600000X1.600000*%
%TD*%
%TA.AperFunction,ComponentPad*%
%ADD12C,1.600000*%
%TD*%
%TA.AperFunction,ComponentPad*%
%ADD13R,2.400000X1.600000*%
%TD*%
%TA.AperFunction,ComponentPad*%
%ADD14O,2.400000X1.600000*%
%TD*%
%TA.AperFunction,ComponentPad*%
%ADD15R,1.000000X1.000000*%
%TD*%
%TA.AperFunction,ComponentPad*%
%ADD16O,1.000000X1.000000*%
%TD*%
%TA.AperFunction,ComponentPad*%
%ADD17RoundRect,0.249999X0.525001X0.525001X-0.525001X0.525001X-0.525001X-0.525001X0.525001X-0.525001X0*%
%TD*%
%TA.AperFunction,ComponentPad*%
%ADD18C,1.550000*%
%TD*%
%TA.AperFunction,ComponentPad*%
%ADD19R,1.600000X2.400000*%
%TD*%
%TA.AperFunction,ComponentPad*%
%ADD20O,1.600000X2.400000*%
%TD*%
%TA.AperFunction,ComponentPad*%
%ADD21R,2.000000X1.905000*%
%TD*%
%TA.AperFunction,ComponentPad*%
%ADD22O,2.000000X1.905000*%
%TD*%
%TA.AperFunction,ComponentPad*%
%ADD23R,1.050000X1.500000*%
%TD*%
%TA.AperFunction,ComponentPad*%
%ADD24O,1.050000X1.500000*%
%TD*%
%TA.AperFunction,ComponentPad*%
%ADD25R,2.000000X2.000000*%
%TD*%
%TA.AperFunction,ComponentPad*%
%ADD26O,2.000000X2.000000*%
%TD*%
%TA.AperFunction,ViaPad*%
%ADD27C,0.800000*%
%TD*%
%TA.AperFunction,Conductor*%
%ADD28C,0.250000*%
%TD*%
G04 APERTURE END LIST*
D10*
%TO.P,D2,1,K*%
%TO.N,Net-(D2-Pad1)*%
X119380000Y-108966000D03*
D11*
%TO.P,D2,2,A*%
%TO.N,/DTACK*%
X111760000Y-108966000D03*
%TD*%
D12*
%TO.P,R1,1*%
%TO.N,VCC*%
X179705000Y-60325000D03*
D11*
%TO.P,R1,2*%
%TO.N,Net-(R1-Pad2)*%
X179705000Y-70485000D03*
%TD*%
D13*
%TO.P,U13,1,A8*%
%TO.N,/MA8*%
X175783000Y-69835000D03*
D14*
%TO.P,U13,2,D*%
%TO.N,/D3*%
X175783000Y-67295000D03*
%TO.P,U13,3,~{WR}*%
%TO.N,/RW*%
X175783000Y-64755000D03*
%TO.P,U13,4,~{RAS}*%
%TO.N,/RAS*%
X175783000Y-62215000D03*
%TO.P,U13,5,A0*%
%TO.N,/MA0*%
X175783000Y-59675000D03*
%TO.P,U13,6,A1*%
%TO.N,/MA1*%
X175783000Y-57135000D03*
%TO.P,U13,7,A2*%
%TO.N,/MA2*%
X175783000Y-54595000D03*
%TO.P,U13,8,VCC*%
%TO.N,VCC*%
X175783000Y-52055000D03*
%TO.P,U13,9,A7*%
%TO.N,/MA7*%
X168163000Y-52055000D03*
%TO.P,U13,10,A5*%
%TO.N,/MA5*%
X168163000Y-54595000D03*
%TO.P,U13,11,A4*%
%TO.N,/MA4*%
X168163000Y-57135000D03*
%TO.P,U13,12,A3*%
%TO.N,/MA3*%
X168163000Y-59675000D03*
%TO.P,U13,13,A6*%
%TO.N,/MA6*%
X168163000Y-62215000D03*
%TO.P,U13,14,Q*%
%TO.N,/D3*%
X168163000Y-64755000D03*
%TO.P,U13,15,~{CAS}*%
%TO.N,/CAS*%
X168163000Y-67295000D03*
%TO.P,U13,16,GND*%
%TO.N,GND*%
X168163000Y-69835000D03*
%TD*%
D13*
%TO.P,U12,1,A8*%
%TO.N,/MA8*%
X106680000Y-69850000D03*
D14*
%TO.P,U12,2,D*%
%TO.N,/D6*%
X106680000Y-67310000D03*
%TO.P,U12,3,~{WR}*%
%TO.N,/RW*%
X106680000Y-64770000D03*
%TO.P,U12,4,~{RAS}*%
%TO.N,/RAS*%
X106680000Y-62230000D03*
%TO.P,U12,5,A0*%
%TO.N,/MA0*%
X106680000Y-59690000D03*
%TO.P,U12,6,A1*%
%TO.N,/MA1*%
X106680000Y-57150000D03*
%TO.P,U12,7,A2*%
%TO.N,/MA2*%
X106680000Y-54610000D03*
%TO.P,U12,8,VCC*%
%TO.N,VCC*%
X106680000Y-52070000D03*
%TO.P,U12,9,A7*%
%TO.N,/MA7*%
X99060000Y-52070000D03*
%TO.P,U12,10,A5*%
%TO.N,/MA5*%
X99060000Y-54610000D03*
%TO.P,U12,11,A4*%
%TO.N,/MA4*%
X99060000Y-57150000D03*
%TO.P,U12,12,A3*%
%TO.N,/MA3*%
X99060000Y-59690000D03*
%TO.P,U12,13,A6*%
%TO.N,/MA6*%
X99060000Y-62230000D03*
%TO.P,U12,14,Q*%
%TO.N,/D6*%
X99060000Y-64770000D03*
%TO.P,U12,15,~{CAS}*%
%TO.N,/CAS*%
X99060000Y-67310000D03*
%TO.P,U12,16,GND*%
%TO.N,GND*%
X99060000Y-69850000D03*
%TD*%
D13*
%TO.P,U14,1,A8*%
%TO.N,/MA8*%
X95265000Y-69850000D03*
D14*
%TO.P,U14,2,D*%
%TO.N,/D7*%
X95265000Y-67310000D03*
%TO.P,U14,3,~{WR}*%
%TO.N,/RW*%
X95265000Y-64770000D03*
%TO.P,U14,4,~{RAS}*%
%TO.N,/RAS*%
X95265000Y-62230000D03*
%TO.P,U14,5,A0*%
%TO.N,/MA0*%
X95265000Y-59690000D03*
%TO.P,U14,6,A1*%
%TO.N,/MA1*%
X95265000Y-57150000D03*
%TO.P,U14,7,A2*%
%TO.N,/MA2*%
X95265000Y-54610000D03*
%TO.P,U14,8,VCC*%
%TO.N,VCC*%
X95265000Y-52070000D03*
%TO.P,U14,9,A7*%
%TO.N,/MA7*%
X87645000Y-52070000D03*
%TO.P,U14,10,A5*%
%TO.N,/MA5*%
X87645000Y-54610000D03*
%TO.P,U14,11,A4*%
%TO.N,/MA4*%
X87645000Y-57150000D03*
%TO.P,U14,12,A3*%
%TO.N,/MA3*%
X87645000Y-59690000D03*
%TO.P,U14,13,A6*%
%TO.N,/MA6*%
X87645000Y-62230000D03*
%TO.P,U14,14,Q*%
%TO.N,/D7*%
X87645000Y-64770000D03*
%TO.P,U14,15,~{CAS}*%
%TO.N,/CAS*%
X87645000Y-67310000D03*
%TO.P,U14,16,GND*%
%TO.N,GND*%
X87645000Y-69850000D03*
%TD*%
D13*
%TO.P,U10,1,A8*%
%TO.N,/MA8*%
X129286000Y-69850000D03*
D14*
%TO.P,U10,2,D*%
%TO.N,/D5*%
X129286000Y-67310000D03*
%TO.P,U10,3,~{WR}*%
%TO.N,/RW*%
X129286000Y-64770000D03*
%TO.P,U10,4,~{RAS}*%
%TO.N,/RAS*%
X129286000Y-62230000D03*
%TO.P,U10,5,A0*%
%TO.N,/MA0*%
X129286000Y-59690000D03*
%TO.P,U10,6,A1*%
%TO.N,/MA1*%
X129286000Y-57150000D03*
%TO.P,U10,7,A2*%
%TO.N,/MA2*%
X129286000Y-54610000D03*
%TO.P,U10,8,VCC*%
%TO.N,VCC*%
X129286000Y-52070000D03*
%TO.P,U10,9,A7*%
%TO.N,/MA7*%
X121666000Y-52070000D03*
%TO.P,U10,10,A5*%
%TO.N,/MA5*%
X121666000Y-54610000D03*
%TO.P,U10,11,A4*%
%TO.N,/MA4*%
X121666000Y-57150000D03*
%TO.P,U10,12,A3*%
%TO.N,/MA3*%
X121666000Y-59690000D03*
%TO.P,U10,13,A6*%
%TO.N,/MA6*%
X121666000Y-62230000D03*
%TO.P,U10,14,Q*%
%TO.N,/D5*%
X121666000Y-64770000D03*
%TO.P,U10,15,~{CAS}*%
%TO.N,/CAS*%
X121666000Y-67310000D03*
%TO.P,U10,16,GND*%
%TO.N,GND*%
X121666000Y-69850000D03*
%TD*%
D15*
%TO.P,D1,1,K*%
%TO.N,Net-(D1-Pad1)*%
X165862000Y-109474000D03*
D16*
%TO.P,D1,2,A*%
%TO.N,Net-(C5-Pad1)*%
X172862000Y-109474000D03*
%TD*%
D17*
%TO.P,J1,a1,Vin*%
%TO.N,+9V*%
X171450000Y-114300000D03*
D18*
%TO.P,J1,a2,-12V*%
%TO.N,unconnected-(J1-Pada2)*%
X168910000Y-114300000D03*
%TO.P,J1,a3,+12V*%
%TO.N,unconnected-(J1-Pada3)*%
X166370000Y-114300000D03*
%TO.P,J1,a4,SP0*%
%TO.N,/SP0*%
X163830000Y-114300000D03*
%TO.P,J1,a5,SP1*%
%TO.N,/SP1*%
X161290000Y-114300000D03*
%TO.P,J1,a6,~{DSMC}*%
%TO.N,/DSMC*%
X158750000Y-114300000D03*
%TO.P,J1,a7,SP2*%
%TO.N,/SP2*%
X156210000Y-114300000D03*
%TO.P,J1,a8,~{DBG}*%
%TO.N,unconnected-(J1-Pada8)*%
X153670000Y-114300000D03*
%TO.P,J1,a9,A3*%
%TO.N,/A3*%
X151130000Y-114300000D03*
%TO.P,J1,a10,A4*%
%TO.N,/A4*%
X148590000Y-114300000D03*
%TO.P,J1,a11,A5*%
%TO.N,/A5*%
X146050000Y-114300000D03*
%TO.P,J1,a12,A6*%
%TO.N,/A6*%
X143510000Y-114300000D03*
%TO.P,J1,a13,A7*%
%TO.N,/A7*%
X140970000Y-114300000D03*
%TO.P,J1,a14,A8*%
%TO.N,/A8*%
X138430000Y-114300000D03*
%TO.P,J1,a15,A9*%
%TO.N,/A9*%
X135890000Y-114300000D03*
%TO.P,J1,a16,A10*%
%TO.N,/A10*%
X133350000Y-114300000D03*
%TO.P,J1,a17,A11*%
%TO.N,/A11*%
X130810000Y-114300000D03*
%TO.P,J1,a18,A12*%
%TO.N,/A12*%
X128270000Y-114300000D03*
%TO.P,J1,a19,A13*%
%TO.N,/A13*%
X125730000Y-114300000D03*
%TO.P,J1,a20,A14*%
%TO.N,/A14*%
X123190000Y-114300000D03*
%TO.P,J1,a21,RED*%
%TO.N,unconnected-(J1-Pada21)*%
X120650000Y-114300000D03*
%TO.P,J1,a22,CLKCPU*%
%TO.N,unconnected-(J1-Pada22)*%
X118110000Y-114300000D03*
%TO.P,J1,a23,A16*%
%TO.N,/A16*%
X115570000Y-114300000D03*
%TO.P,J1,a24,A17*%
%TO.N,/A17*%
X113030000Y-114300000D03*
%TO.P,J1,a25,A18*%
%TO.N,/A18*%
X110490000Y-114300000D03*
%TO.P,J1,a26,A19*%
%TO.N,/A19*%
X107950000Y-114300000D03*
%TO.P,J1,a27,D7*%
%TO.N,/D7*%
X105410000Y-114300000D03*
%TO.P,J1,a28,D6*%
%TO.N,/D6*%
X102870000Y-114300000D03*
%TO.P,J1,a29,D5*%
%TO.N,/D5*%
X100330000Y-114300000D03*
%TO.P,J1,a30,D4*%
%TO.N,/D4*%
X97790000Y-114300000D03*
%TO.P,J1,a31,D3*%
%TO.N,/D3*%
X95250000Y-114300000D03*
%TO.P,J1,a32,GND*%
%TO.N,GND*%
X92710000Y-114300000D03*
%TO.P,J1,b1,Vin*%
%TO.N,+9V*%
X171450000Y-111760000D03*
%TO.P,J1,b2,Vin*%
X168910000Y-111760000D03*
%TO.P,J1,b3,~{EXTINT}*%
%TO.N,unconnected-(J1-Padb3)*%
X166370000Y-111760000D03*
%TO.P,J1,b4,~{IPL1}*%
%TO.N,unconnected-(J1-Padb4)*%
X163830000Y-111760000D03*
%TO.P,J1,b5,~{BERR}*%
%TO.N,unconnected-(J1-Padb5)*%
X161290000Y-111760000D03*
%TO.P,J1,b6,~{IPLO}*%
%TO.N,unconnected-(J1-Padb6)*%
X158750000Y-111760000D03*
%TO.P,J1,b7,SP3*%
%TO.N,/SP3*%
X156210000Y-111760000D03*
%TO.P,J1,b8,A2*%
%TO.N,/A2*%
X153670000Y-111760000D03*
%TO.P,J1,b9,G9*%
%TO.N,/A1*%
X151130000Y-111760000D03*
%TO.P,J1,b10,ROMOEH*%
%TO.N,unconnected-(J1-Padb10)*%
X148590000Y-111760000D03*
%TO.P,J1,b11,A0*%
%TO.N,/A0*%
X146050000Y-111760000D03*
%TO.P,J1,b12,FC0*%
%TO.N,unconnected-(J1-Padb12)*%
X143510000Y-111760000D03*
%TO.P,J1,b13,FC1*%
%TO.N,unconnected-(J1-Padb13)*%
X140970000Y-111760000D03*
%TO.P,J1,b14,FC2*%
%TO.N,unconnected-(J1-Padb14)*%
X138430000Y-111760000D03*
%TO.P,J1,b15,BLUE*%
%TO.N,unconnected-(J1-Padb15)*%
X135890000Y-111760000D03*
%TO.P,J1,b16,GREEN*%
%TO.N,unconnected-(J1-Padb16)*%
X133350000Y-111760000D03*
%TO.P,J1,b17,~{VPA}*%
%TO.N,/VPA*%
X130810000Y-111760000D03*
%TO.P,J1,b18,VSYNCH*%
%TO.N,unconnected-(J1-Padb18)*%
X128270000Y-111760000D03*
%TO.P,J1,b19,E*%
%TO.N,/E*%
X125730000Y-111760000D03*
%TO.P,J1,b20,~{CSYNC}*%
%TO.N,unconnected-(J1-Padb20)*%
X123190000Y-111760000D03*
%TO.P,J1,b21,~{RESETCPU}*%
%TO.N,/RESET*%
X120650000Y-111760000D03*
%TO.P,J1,b22,A15*%
%TO.N,/A15*%
X118110000Y-111760000D03*
%TO.P,J1,b23,~{BR}*%
%TO.N,unconnected-(J1-Padb23)*%
X115570000Y-111760000D03*
%TO.P,J1,b24,~{BG}*%
%TO.N,unconnected-(J1-Padb24)*%
X113030000Y-111760000D03*
%TO.P,J1,b25,~{DTACK}*%
%TO.N,/DTACK*%
X110490000Y-111760000D03*
%TO.P,J1,b26,~{DRW}*%
%TO.N,/RW*%
X107950000Y-111760000D03*
%TO.P,J1,b27,~{DS}*%
%TO.N,/DS*%
X105410000Y-111760000D03*
%TO.P,J1,b28,~{AS}*%
%TO.N,unconnected-(J1-Padb28)*%
X102870000Y-111760000D03*
%TO.P,J1,b29,D0*%
%TO.N,/D0*%
X100330000Y-111760000D03*
%TO.P,J1,b30,D1*%
%TO.N,/D1*%
X97790000Y-111760000D03*
%TO.P,J1,b31,D2*%
%TO.N,/D2*%
X95250000Y-111760000D03*
%TO.P,J1,b32,GND*%
%TO.N,GND*%
X92710000Y-111760000D03*
%TD*%
D13*
%TO.P,U9,1,A8*%
%TO.N,/MA8*%
X140716000Y-69850000D03*
D14*
%TO.P,U9,2,D*%
%TO.N,/D1*%
X140716000Y-67310000D03*
%TO.P,U9,3,~{WR}*%
%TO.N,/RW*%
X140716000Y-64770000D03*
%TO.P,U9,4,~{RAS}*%
%TO.N,/RAS*%
X140716000Y-62230000D03*
%TO.P,U9,5,A0*%
%TO.N,/MA0*%
X140716000Y-59690000D03*
%TO.P,U9,6,A1*%
%TO.N,/MA1*%
X140716000Y-57150000D03*
%TO.P,U9,7,A2*%
%TO.N,/MA2*%
X140716000Y-54610000D03*
%TO.P,U9,8,VCC*%
%TO.N,VCC*%
X140716000Y-52070000D03*
%TO.P,U9,9,A7*%
%TO.N,/MA7*%
X133096000Y-52070000D03*
%TO.P,U9,10,A5*%
%TO.N,/MA5*%
X133096000Y-54610000D03*
%TO.P,U9,11,A4*%
%TO.N,/MA4*%
X133096000Y-57150000D03*
%TO.P,U9,12,A3*%
%TO.N,/MA3*%
X133096000Y-59690000D03*
%TO.P,U9,13,A6*%
%TO.N,/MA6*%
X133096000Y-62230000D03*
%TO.P,U9,14,Q*%
%TO.N,/D1*%
X133096000Y-64770000D03*
%TO.P,U9,15,~{CAS}*%
%TO.N,/CAS*%
X133096000Y-67310000D03*
%TO.P,U9,16,GND*%
%TO.N,GND*%
X133096000Y-69850000D03*
%TD*%
D13*
%TO.P,U5,1,S*%
%TO.N,/MUX*%
X110998000Y-92949000D03*
D14*
%TO.P,U5,2,I0a*%
%TO.N,/A5*%
X110998000Y-90409000D03*
%TO.P,U5,3,I1a*%
%TO.N,/A4*%
X110998000Y-87869000D03*
%TO.P,U5,4,Za*%
%TO.N,/MA4*%
X110998000Y-85329000D03*
%TO.P,U5,5,I0b*%
%TO.N,/A6*%
X110998000Y-82789000D03*
%TO.P,U5,6,I1b*%
%TO.N,/A11*%
X110998000Y-80249000D03*
%TO.P,U5,7,Zb*%
%TO.N,/MA3*%
X110998000Y-77709000D03*
%TO.P,U5,8,GND*%
%TO.N,GND*%
X110998000Y-75169000D03*
%TO.P,U5,9,Zc*%
%TO.N,/MA6*%
X103378000Y-75169000D03*
%TO.P,U5,10,I1c*%
%TO.N,/A10*%
X103378000Y-77709000D03*
%TO.P,U5,11,I0c*%
%TO.N,/A7*%
X103378000Y-80249000D03*
%TO.P,U5,12,Zd*%
%TO.N,/MA0*%
X103378000Y-82789000D03*
%TO.P,U5,13,I1d*%
%TO.N,/A9*%
X103378000Y-85329000D03*
%TO.P,U5,14,I0d*%
%TO.N,/A8*%
X103378000Y-87869000D03*
%TO.P,U5,15,E*%
%TO.N,GND*%
X103378000Y-90409000D03*
%TO.P,U5,16,VCC*%
%TO.N,VCC*%
X103378000Y-92949000D03*
%TD*%
D19*
%TO.P,U2,1,I1/CLK*%
%TO.N,/DS*%
X176525000Y-99060000D03*
D20*
%TO.P,U2,2,I2*%
%TO.N,/E*%
X173985000Y-99060000D03*
%TO.P,U2,3,I3*%
%TO.N,Net-(R1-Pad2)*%
X171445000Y-99060000D03*
%TO.P,U2,4,I4*%
%TO.N,/A15*%
X168905000Y-99060000D03*
%TO.P,U2,5,I5*%
%TO.N,/A16*%
X166365000Y-99060000D03*
%TO.P,U2,6,I6*%
%TO.N,/A17*%
X163825000Y-99060000D03*
%TO.P,U2,7,I7*%
%TO.N,/A18*%
X161285000Y-99060000D03*
%TO.P,U2,8,I8*%
%TO.N,/A19*%
X158745000Y-99060000D03*
%TO.P,U2,9,I9*%
%TO.N,unconnected-(U2-Pad9)*%
X156205000Y-99060000D03*
%TO.P,U2,10,GND*%
%TO.N,GND*%
X153665000Y-99060000D03*
%TO.P,U2,11,I10/~{OE}*%
X153665000Y-106680000D03*
%TO.P,U2,12,IO8*%
%TO.N,Net-(R2-Pad1)*%
X156205000Y-106680000D03*
%TO.P,U2,13,IO7*%
%TO.N,Net-(D2-Pad1)*%
X158745000Y-106680000D03*
%TO.P,U2,14,IO6*%
%TO.N,/MUX*%
X161285000Y-106680000D03*
%TO.P,U2,15,IO5*%
%TO.N,/CAS*%
X163825000Y-106680000D03*
%TO.P,U2,16,IO4*%
%TO.N,Net-(D1-Pad1)*%
X166365000Y-106680000D03*
%TO.P,U2,17,I03*%
%TO.N,/RAS*%
X168905000Y-106680000D03*
%TO.P,U2,18,IO2*%
%TO.N,/VPA_TR*%
X171445000Y-106680000D03*
%TO.P,U2,19,IO1*%
%TO.N,/MA8*%
X173985000Y-106680000D03*
%TO.P,U2,20,VCC*%
%TO.N,VCC*%
X176525000Y-106680000D03*
%TD*%
D21*
%TO.P,U1,1,IN*%
%TO.N,+9V*%
X85090000Y-101600000D03*
D22*
%TO.P,U1,2,GND*%
%TO.N,GND*%
X85090000Y-104140000D03*
%TO.P,U1,3,OUT*%
%TO.N,VCC*%
X85090000Y-106680000D03*
%TD*%
D12*
%TO.P,R2,1*%
%TO.N,Net-(R2-Pad1)*%
X176530000Y-95504000D03*
D11*
%TO.P,R2,2*%
%TO.N,Net-(C5-Pad1)*%
X173990000Y-95504000D03*
%TD*%
D13*
%TO.P,U11,1,A8*%
%TO.N,/MA8*%
X164084000Y-69850000D03*
D14*
%TO.P,U11,2,D*%
%TO.N,/D2*%
X164084000Y-67310000D03*
%TO.P,U11,3,~{WR}*%
%TO.N,/RW*%
X164084000Y-64770000D03*
%TO.P,U11,4,~{RAS}*%
%TO.N,/RAS*%
X164084000Y-62230000D03*
%TO.P,U11,5,A0*%
%TO.N,/MA0*%
X164084000Y-59690000D03*
%TO.P,U11,6,A1*%
%TO.N,/MA1*%
X164084000Y-57150000D03*
%TO.P,U11,7,A2*%
%TO.N,/MA2*%
X164084000Y-54610000D03*
%TO.P,U11,8,VCC*%
%TO.N,VCC*%
X164084000Y-52070000D03*
%TO.P,U11,9,A7*%
%TO.N,/MA7*%
X156464000Y-52070000D03*
%TO.P,U11,10,A5*%
%TO.N,/MA5*%
X156464000Y-54610000D03*
%TO.P,U11,11,A4*%
%TO.N,/MA4*%
X156464000Y-57150000D03*
%TO.P,U11,12,A3*%
%TO.N,/MA3*%
X156464000Y-59690000D03*
%TO.P,U11,13,A6*%
%TO.N,/MA6*%
X156464000Y-62230000D03*
%TO.P,U11,14,Q*%
%TO.N,/D2*%
X156464000Y-64770000D03*
%TO.P,U11,15,~{CAS}*%
%TO.N,/CAS*%
X156464000Y-67310000D03*
%TO.P,U11,16,GND*%
%TO.N,GND*%
X156464000Y-69850000D03*
%TD*%
D19*
%TO.P,U7,1,VPP*%
%TO.N,VCC*%
X134620000Y-91440000D03*
D20*
%TO.P,U7,2,A12*%
%TO.N,/A12*%
X137160000Y-91440000D03*
%TO.P,U7,3,A7*%
%TO.N,/A7*%
X139700000Y-91440000D03*
%TO.P,U7,4,A6*%
%TO.N,/A6*%
X142240000Y-91440000D03*
%TO.P,U7,5,A5*%
%TO.N,/A5*%
X144780000Y-91440000D03*
%TO.P,U7,6,A4*%
%TO.N,/A4*%
X147320000Y-91440000D03*
%TO.P,U7,7,A3*%
%TO.N,/A3*%
X149860000Y-91440000D03*
%TO.P,U7,8,A2*%
%TO.N,/A2*%
X152400000Y-91440000D03*
%TO.P,U7,9,A1*%
%TO.N,/A1*%
X154940000Y-91440000D03*
%TO.P,U7,10,A0*%
%TO.N,/A0*%
X157480000Y-91440000D03*
%TO.P,U7,11,D0*%
%TO.N,/D0*%
X160020000Y-91440000D03*
%TO.P,U7,12,D1*%
%TO.N,/D1*%
X162560000Y-91440000D03*
%TO.P,U7,13,D2*%
%TO.N,/D2*%
X165100000Y-91440000D03*
%TO.P,U7,14,GND*%
%TO.N,GND*%
X167640000Y-91440000D03*
%TO.P,U7,15,D3*%
%TO.N,/D3*%
X167640000Y-76200000D03*
%TO.P,U7,16,D4*%
%TO.N,/D4*%
X165100000Y-76200000D03*
%TO.P,U7,17,D5*%
%TO.N,/D5*%
X162560000Y-76200000D03*
%TO.P,U7,18,D6*%
%TO.N,/D6*%
X160020000Y-76200000D03*
%TO.P,U7,19,D7*%
%TO.N,/D7*%
X157480000Y-76200000D03*
%TO.P,U7,20,~{CE}*%
%TO.N,/ROM_OE*%
X154940000Y-76200000D03*
%TO.P,U7,21,A10*%
%TO.N,/A10*%
X152400000Y-76200000D03*
%TO.P,U7,22,~{OE}*%
%TO.N,/A13*%
X149860000Y-76200000D03*
%TO.P,U7,23,A11*%
%TO.N,/A11*%
X147320000Y-76200000D03*
%TO.P,U7,24,A9*%
%TO.N,/A9*%
X144780000Y-76200000D03*
%TO.P,U7,25,A8*%
%TO.N,/A8*%
X142240000Y-76200000D03*
%TO.P,U7,26,NC*%
%TO.N,unconnected-(U7-Pad26)*%
X139700000Y-76200000D03*
%TO.P,U7,27,~{PGM}*%
%TO.N,VCC*%
X137160000Y-76200000D03*
%TO.P,U7,28,VCC*%
X134620000Y-76200000D03*
%TD*%
D23*
%TO.P,Q1,1,E*%
%TO.N,/VPA*%
X109220000Y-97790000D03*
D24*
%TO.P,Q1,2,B*%
%TO.N,/VPA_TR*%
X110490000Y-97790000D03*
%TO.P,Q1,3,C*%
%TO.N,VCC*%
X111760000Y-97790000D03*
%TD*%
D13*
%TO.P,U3,1*%
%TO.N,/SP0*%
X178816000Y-91440000D03*
D14*
%TO.P,U3,2*%
%TO.N,/A14*%
X178816000Y-88900000D03*
%TO.P,U3,3*%
%TO.N,Net-(R1-Pad2)*%
X178816000Y-86360000D03*
%TO.P,U3,4*%
X178816000Y-83820000D03*
%TO.P,U3,5*%
%TO.N,/SP1*%
X178816000Y-81280000D03*
%TO.P,U3,6*%
%TO.N,/A15*%
X178816000Y-78740000D03*
%TO.P,U3,7,GND*%
%TO.N,GND*%
X178816000Y-76200000D03*
%TO.P,U3,8*%
%TO.N,/A16*%
X171196000Y-76200000D03*
%TO.P,U3,9*%
%TO.N,/SP2*%
X171196000Y-78740000D03*
%TO.P,U3,10*%
%TO.N,Net-(R1-Pad2)*%
X171196000Y-81280000D03*
%TO.P,U3,11*%
X171196000Y-83820000D03*
%TO.P,U3,12*%
%TO.N,/A17*%
X171196000Y-86360000D03*
%TO.P,U3,13*%
%TO.N,/SP3*%
X171196000Y-88900000D03*
%TO.P,U3,14,VCC*%
%TO.N,VCC*%
X171196000Y-91440000D03*
%TD*%
D13*
%TO.P,U6,1,A8*%
%TO.N,/MA8*%
X118110000Y-69850000D03*
D14*
%TO.P,U6,2,D*%
%TO.N,/D0*%
X118110000Y-67310000D03*
%TO.P,U6,3,~{WR}*%
%TO.N,/RW*%
X118110000Y-64770000D03*
%TO.P,U6,4,~{RAS}*%
%TO.N,/RAS*%
X118110000Y-62230000D03*
%TO.P,U6,5,A0*%
%TO.N,/MA0*%
X118110000Y-59690000D03*
%TO.P,U6,6,A1*%
%TO.N,/MA1*%
X118110000Y-57150000D03*
%TO.P,U6,7,A2*%
%TO.N,/MA2*%
X118110000Y-54610000D03*
%TO.P,U6,8,VCC*%
%TO.N,VCC*%
X118110000Y-52070000D03*
%TO.P,U6,9,A7*%
%TO.N,/MA7*%
X110490000Y-52070000D03*
%TO.P,U6,10,A5*%
%TO.N,/MA5*%
X110490000Y-54610000D03*
%TO.P,U6,11,A4*%
%TO.N,/MA4*%
X110490000Y-57150000D03*
%TO.P,U6,12,A3*%
%TO.N,/MA3*%
X110490000Y-59690000D03*
%TO.P,U6,13,A6*%
%TO.N,/MA6*%
X110490000Y-62230000D03*
%TO.P,U6,14,Q*%
%TO.N,/D0*%
X110490000Y-64770000D03*
%TO.P,U6,15,~{CAS}*%
%TO.N,/CAS*%
X110490000Y-67310000D03*
%TO.P,U6,16,GND*%
%TO.N,GND*%
X110490000Y-69850000D03*
%TD*%
D13*
%TO.P,U4,1,S*%
%TO.N,/MUX*%
X127650000Y-92964000D03*
D14*
%TO.P,U4,2,I0a*%
%TO.N,/A1*%
X127650000Y-90424000D03*
%TO.P,U4,3,I1a*%
%TO.N,/A16*%
X127650000Y-87884000D03*
%TO.P,U4,4,Za*%
%TO.N,/MA2*%
X127650000Y-85344000D03*
%TO.P,U4,5,I0b*%
%TO.N,/A2*%
X127650000Y-82804000D03*
%TO.P,U4,6,I1b*%
%TO.N,/A12*%
X127650000Y-80264000D03*
%TO.P,U4,7,Zb*%
%TO.N,/MA1*%
X127650000Y-77724000D03*
%TO.P,U4,8,GND*%
%TO.N,GND*%
X127650000Y-75184000D03*
%TO.P,U4,9,Zc*%
%TO.N,/MA5*%
X120030000Y-75184000D03*
%TO.P,U4,10,I1c*%
%TO.N,/A3*%
X120030000Y-77724000D03*
%TO.P,U4,11,I0c*%
%TO.N,/A13*%
X120030000Y-80264000D03*
%TO.P,U4,12,Zd*%
%TO.N,/MA7*%
X120030000Y-82804000D03*
%TO.P,U4,13,I1d*%
%TO.N,/A14*%
X120030000Y-85344000D03*
%TO.P,U4,14,I0d*%
%TO.N,/A15*%
X120030000Y-87884000D03*
%TO.P,U4,15,E*%
%TO.N,GND*%
X120030000Y-90424000D03*
%TO.P,U4,16,VCC*%
%TO.N,VCC*%
X120030000Y-92964000D03*
%TD*%
D12*
%TO.P,C5,1*%
%TO.N,Net-(C5-Pad1)*%
X170815000Y-95504000D03*
%TO.P,C5,2*%
%TO.N,GND*%
X165815000Y-95504000D03*
%TD*%
D10*
%TO.P,C3,1*%
%TO.N,VCC*%
X174752000Y-45720000D03*
D12*
%TO.P,C3,2*%
%TO.N,GND*%
X172252000Y-45720000D03*
%TD*%
D10*
%TO.P,C1,1*%
%TO.N,VCC*%
X108585000Y-105410000D03*
D12*
%TO.P,C1,2*%
%TO.N,GND*%
X108585000Y-102910000D03*
%TD*%
D10*
%TO.P,C2,1*%
%TO.N,VCC*%
X95250000Y-45720000D03*
D12*
%TO.P,C2,2*%
%TO.N,GND*%
X92750000Y-45720000D03*
%TD*%
D13*
%TO.P,U8,1,A8*%
%TO.N,/MA8*%
X152400000Y-69850000D03*
D14*
%TO.P,U8,2,D*%
%TO.N,/D4*%
X152400000Y-67310000D03*
%TO.P,U8,3,~{WR}*%
%TO.N,/RW*%
X152400000Y-64770000D03*
%TO.P,U8,4,~{RAS}*%
%TO.N,/RAS*%
X152400000Y-62230000D03*
%TO.P,U8,5,A0*%
%TO.N,/MA0*%
X152400000Y-59690000D03*
%TO.P,U8,6,A1*%
%TO.N,/MA1*%
X152400000Y-57150000D03*
%TO.P,U8,7,A2*%
%TO.N,/MA2*%
X152400000Y-54610000D03*
%TO.P,U8,8,VCC*%
%TO.N,VCC*%
X152400000Y-52070000D03*
%TO.P,U8,9,A7*%
%TO.N,/MA7*%
X144780000Y-52070000D03*
%TO.P,U8,10,A5*%
%TO.N,/MA5*%
X144780000Y-54610000D03*
%TO.P,U8,11,A4*%
%TO.N,/MA4*%
X144780000Y-57150000D03*
%TO.P,U8,12,A3*%
%TO.N,/MA3*%
X144780000Y-59690000D03*
%TO.P,U8,13,A6*%
%TO.N,/MA6*%
X144780000Y-62230000D03*
%TO.P,U8,14,Q*%
%TO.N,/D4*%
X144780000Y-64770000D03*
%TO.P,U8,15,~{CAS}*%
%TO.N,/CAS*%
X144780000Y-67310000D03*
%TO.P,U8,16,GND*%
%TO.N,GND*%
X144780000Y-69850000D03*
%TD*%
D25*
%TO.P,C4,1*%
%TO.N,+9V*%
X85090000Y-95885000D03*
D26*
%TO.P,C4,2*%
%TO.N,GND*%
X100090000Y-95885000D03*
%TD*%
D27*
%TO.N,GND*%
X172212000Y-72136000D03*
X85725000Y-90170000D03*
%TO.N,VCC*%
X84074000Y-48260000D03*
X134620000Y-97790000D03*
%TO.N,/DSMC*%
X158750000Y-116840000D03*
%TO.N,/MUX*%
X125823400Y-105730400D03*
X125730000Y-95250000D03*
%TO.N,/A3*%
X123666800Y-100089500D03*
X149330900Y-100089500D03*
%TO.N,/A5*%
X112523100Y-86750600D03*
%TO.N,/A7*%
X140970000Y-116840000D03*
X104309800Y-109828100D03*
X100909300Y-80249000D03*
%TO.N,/A8*%
X138805300Y-99306200D03*
X114887700Y-99306200D03*
%TO.N,/A9*%
X135890000Y-95885000D03*
X113573200Y-96418200D03*
%TO.N,/A10*%
X132080000Y-95885000D03*
X112805500Y-73631000D03*
X126918500Y-73631000D03*
%TO.N,/A11*%
X130810000Y-80010000D03*
%TO.N,/A12*%
X137160000Y-94733400D03*
X128270000Y-95250000D03*
%TO.N,/A14*%
X159004000Y-87630000D03*
X121920000Y-102235000D03*
X143510000Y-102235000D03*
%TO.N,unconnected-(J1-Pada22)*%
X116840000Y-104775000D03*
%TO.N,/A16*%
X174244000Y-91440000D03*
X166328600Y-89326100D03*
X125851900Y-106761100D03*
X116079000Y-108278200D03*
%TO.N,/A17*%
X163830000Y-86360000D03*
X148590000Y-109474000D03*
X148590000Y-93726000D03*
%TO.N,/A19*%
X117347500Y-102964000D03*
%TO.N,/D7*%
X97155000Y-76326500D03*
X156210000Y-78740000D03*
%TO.N,/D6*%
X114300000Y-67310000D03*
X114935000Y-97155000D03*
X157330000Y-101750000D03*
%TO.N,/A2*%
X149419200Y-88357400D03*
%TO.N,/A1*%
X151130000Y-88900000D03*
%TO.N,/A0*%
X146050000Y-95250000D03*
X157480000Y-93980000D03*
%TO.N,/VPA*%
X132080000Y-116840000D03*
X106680000Y-116205000D03*
%TO.N,/A15*%
X161397200Y-84967900D03*
X161290000Y-116840000D03*
X118110000Y-107315000D03*
%TO.N,/RW*%
X130810000Y-77470000D03*
%TO.N,/DS*%
X110490000Y-104140000D03*
%TO.N,/D0*%
X160020000Y-93980000D03*
X124460000Y-97155000D03*
X124460000Y-66040000D03*
%TO.N,/SP0*%
X179832000Y-110744000D03*
%TO.N,/SP1*%
X181102000Y-111760000D03*
%TO.N,/SP2*%
X170184000Y-108708000D03*
%TO.N,/SP3*%
X176901400Y-101143300D03*
X176946600Y-93187100D03*
%TO.N,/VPA_TR*%
X152940000Y-102235000D03*
X156210000Y-88900000D03*
X165784600Y-104867300D03*
%TO.N,Net-(R1-Pad2)*%
X175058000Y-83820000D03*
%TO.N,/CAS*%
X167490100Y-103204700D03*
X171278900Y-66847100D03*
%TO.N,/RAS*%
X115570000Y-95250000D03*
X115570000Y-93345000D03*
%TO.N,Net-(D2-Pad1)*%
X154940000Y-109474000D03*
%TO.N,Net-(R2-Pad1)*%
X155194000Y-101854000D03*
%TD*%
D28*
%TO.N,+9V*%
X171450000Y-118110000D02*
X90170000Y-118110000D01*
X83820000Y-114300000D02*
X83765000Y-114245000D01*
X171450000Y-111760000D02*
X171450000Y-114300000D01*
X83765000Y-101655000D02*
X83820000Y-101600000D01*
X90170000Y-114300000D02*
X83820000Y-114300000D01*
X90170000Y-118110000D02*
X90170000Y-114300000D01*
X83765000Y-114245000D02*
X83765000Y-101655000D01*
X171450000Y-114300000D02*
X171450000Y-118110000D01*
X83820000Y-101600000D02*
X85090000Y-101600000D01*
%TO.N,GND*%
X153665000Y-99060000D02*
X153665000Y-106680000D01*
X166225000Y-73043000D02*
X166225000Y-83421000D01*
X167640000Y-84836000D02*
X167640000Y-91440000D01*
X167640000Y-91440000D02*
X167640000Y-92965100D01*
X92710000Y-45720000D02*
X92750000Y-45720000D01*
X172252000Y-45720000D02*
X172252000Y-72096000D01*
X165815000Y-94790100D02*
X165815000Y-95504000D01*
X168163000Y-71105000D02*
X166225000Y-73043000D01*
X167640000Y-92965100D02*
X165815000Y-94790100D01*
X89170000Y-68325000D02*
X89170000Y-45736000D01*
X87645000Y-69850000D02*
X89170000Y-68325000D01*
X172252000Y-72096000D02*
X172212000Y-72136000D01*
X89154000Y-45720000D02*
X92710000Y-45720000D01*
X168163000Y-69835000D02*
X168163000Y-71105000D01*
X89170000Y-45736000D02*
X89154000Y-45720000D01*
X166225000Y-83421000D02*
X167640000Y-84836000D01*
%TO.N,VCC*%
X88138000Y-92710000D02*
X87884000Y-92456000D01*
X85090000Y-106680000D02*
X88138000Y-106680000D01*
X134620000Y-76200000D02*
X134620000Y-91440000D01*
X88138000Y-106680000D02*
X88138000Y-92710000D01*
X84074000Y-92456000D02*
X84074000Y-48260000D01*
X134620000Y-91440000D02*
X134620000Y-97790000D01*
X87884000Y-92456000D02*
X84074000Y-92456000D01*
%TO.N,Net-(C5-Pad1)*%
X170815000Y-95504000D02*
X173990000Y-95504000D01*
X170815000Y-95504000D02*
X172860000Y-98184000D01*
X172860000Y-108514000D02*
X172860000Y-107556000D01*
X172862000Y-109474000D02*
X172862000Y-108516000D01*
X172860000Y-98184000D02*
X172860000Y-107556000D01*
X172862000Y-108516000D02*
X172862000Y-107558000D01*
X172862000Y-108516000D02*
X172860000Y-108514000D01*
%TO.N,/DSMC*%
X158750000Y-114300000D02*
X158750000Y-116840000D01*
%TO.N,/MUX*%
X125730000Y-95250000D02*
X125823400Y-95343400D01*
X125730000Y-95250000D02*
X125730000Y-93345000D01*
X125823400Y-95343400D02*
X125823400Y-105730400D01*
X126111000Y-92964000D02*
X127650000Y-92964000D01*
X125730000Y-93345000D02*
X126111000Y-92964000D01*
%TO.N,/A3*%
X120030000Y-77724000D02*
X121555100Y-77724000D01*
X149860000Y-101600000D02*
X149330900Y-101070900D01*
X123666800Y-79835700D02*
X123666800Y-100089500D01*
X149860000Y-91440000D02*
X149860000Y-101600000D01*
X149860000Y-113030000D02*
X151130000Y-114300000D01*
X149860000Y-101600000D02*
X149860000Y-113030000D01*
X149330900Y-101070900D02*
X149330900Y-100089500D01*
X121555100Y-77724000D02*
X123666800Y-79835700D01*
%TO.N,/A4*%
X147320000Y-91440000D02*
X147320000Y-113030000D01*
X147320000Y-113030000D02*
X148590000Y-114300000D01*
%TO.N,/A5*%
X144780000Y-91440000D02*
X144780000Y-113030000D01*
X110998000Y-90409000D02*
X112523100Y-90409000D01*
X144780000Y-113030000D02*
X146050000Y-114300000D01*
X112523100Y-90409000D02*
X112523100Y-86750600D01*
%TO.N,/A6*%
X142240000Y-91440000D02*
X142240000Y-113030000D01*
X142240000Y-113030000D02*
X143510000Y-114300000D01*
%TO.N,/A7*%
X139700000Y-113030000D02*
X140478000Y-113808000D01*
X104309800Y-95975100D02*
X104309800Y-109828100D01*
X100909300Y-80249000D02*
X100909300Y-92574600D01*
X139700000Y-91440000D02*
X139700000Y-113030000D01*
X140478000Y-113808000D02*
X140970000Y-116840000D01*
X100909300Y-92574600D02*
X104309800Y-95975100D01*
X140478000Y-113808000D02*
X140970000Y-114300000D01*
%TO.N,/A8*%
X142240000Y-81788000D02*
X138430000Y-85598000D01*
X136990000Y-102532000D02*
X136990000Y-112860000D01*
X136990000Y-112860000D02*
X138430000Y-114300000D01*
X138430000Y-101092000D02*
X136990000Y-102532000D01*
X138430000Y-98838100D02*
X138805300Y-99213400D01*
X104903100Y-87869000D02*
X104903100Y-89321600D01*
X138430000Y-98838100D02*
X138430000Y-101092000D01*
X103378000Y-87869000D02*
X104903100Y-87869000D01*
X138430000Y-85598000D02*
X138430000Y-98838100D01*
X104903100Y-89321600D02*
X114887700Y-99306200D01*
X142240000Y-76200000D02*
X142240000Y-81788000D01*
X138805300Y-99213400D02*
X138805300Y-99306200D01*
%TO.N,/A9*%
X135890000Y-75479000D02*
X136694000Y-74675000D01*
X104903100Y-85329000D02*
X104903100Y-86377500D01*
X141731000Y-74675000D02*
X141732000Y-74676000D01*
X135890000Y-95885000D02*
X135890000Y-98806000D01*
X135890000Y-95885000D02*
X135890000Y-75479000D01*
X136694000Y-74675000D02*
X141731000Y-74675000D01*
X104903100Y-86377500D02*
X110321700Y-91796100D01*
X112351000Y-91796100D02*
X113573200Y-93018300D01*
X113573200Y-93018300D02*
X113573200Y-96418200D01*
X134450000Y-100246000D02*
X134450000Y-112860000D01*
X134450000Y-112860000D02*
X135890000Y-114300000D01*
X141733000Y-74675000D02*
X143255000Y-74675000D01*
X103378000Y-85329000D02*
X104903100Y-85329000D01*
X141732000Y-74676000D02*
X141733000Y-74675000D01*
X135890000Y-98806000D02*
X134450000Y-100246000D01*
X143255000Y-74675000D02*
X144780000Y-76200000D01*
X110321700Y-91796100D02*
X112351000Y-91796100D01*
%TO.N,/A10*%
X132080000Y-74930000D02*
X133604000Y-73406000D01*
X103378000Y-77709000D02*
X101852900Y-77709000D01*
X130084800Y-77775300D02*
X130084800Y-75602800D01*
X133604000Y-73406000D02*
X151638000Y-73406000D01*
X130084800Y-75602800D02*
X128113000Y-73631000D01*
X102498500Y-83914200D02*
X105154800Y-83914200D01*
X107575800Y-81493200D02*
X111769100Y-81493200D01*
X101635200Y-83050900D02*
X102498500Y-83914200D01*
X105154800Y-83914200D02*
X107575800Y-81493200D01*
X132080000Y-78398800D02*
X132080000Y-74930000D01*
X112805500Y-80456800D02*
X112805500Y-73631000D01*
X130708300Y-78398800D02*
X130084800Y-77775300D01*
X128113000Y-73631000D02*
X126918500Y-73631000D01*
X132080000Y-78398800D02*
X130708300Y-78398800D01*
X101635200Y-77926700D02*
X101635200Y-83050900D01*
X132080000Y-95885000D02*
X132080000Y-78398800D01*
X101852900Y-77709000D02*
X101635200Y-77926700D01*
X132080000Y-113030000D02*
X133350000Y-114300000D01*
X152400000Y-74168000D02*
X152400000Y-76200000D01*
X132080000Y-95885000D02*
X132080000Y-113030000D01*
X151638000Y-73406000D02*
X152400000Y-74168000D01*
X111769100Y-81493200D02*
X112805500Y-80456800D01*
%TO.N,/A11*%
X130810000Y-114300000D02*
X129540000Y-113030000D01*
X130810000Y-105410000D02*
X130810000Y-80010000D01*
X129540000Y-113030000D02*
X129540000Y-106680000D01*
X129540000Y-106680000D02*
X130810000Y-105410000D01*
%TO.N,/A12*%
X130175000Y-81280000D02*
X129159000Y-80264000D01*
X128270000Y-95250000D02*
X130175000Y-93345000D01*
X129159000Y-80264000D02*
X127650000Y-80264000D01*
X137160000Y-91440000D02*
X137160000Y-94733400D01*
X128270000Y-95250000D02*
X127000000Y-96520000D01*
X127000000Y-96520000D02*
X127000000Y-113030000D01*
X127000000Y-113030000D02*
X128270000Y-114300000D01*
X130175000Y-93345000D02*
X130175000Y-81280000D01*
%TO.N,/A13*%
X121539000Y-80264000D02*
X122555000Y-81280000D01*
X122555000Y-100330000D02*
X124460000Y-102235000D01*
X122555000Y-81280000D02*
X122555000Y-100330000D01*
X124460000Y-102235000D02*
X124460000Y-113030000D01*
X124460000Y-113030000D02*
X125730000Y-114300000D01*
X120030000Y-80264000D02*
X121539000Y-80264000D01*
%TO.N,/A14*%
X121920000Y-86360000D02*
X121412000Y-85852000D01*
X120538000Y-85852000D02*
X120030000Y-85344000D01*
X146050000Y-87630000D02*
X159004000Y-87630000D01*
X121920000Y-102235000D02*
X121920000Y-113030000D01*
X143510000Y-102235000D02*
X143510000Y-90170000D01*
X121412000Y-85852000D02*
X120538000Y-85852000D01*
X143510000Y-90170000D02*
X146050000Y-87630000D01*
X121920000Y-113030000D02*
X123190000Y-114300000D01*
X121920000Y-102235000D02*
X121920000Y-86360000D01*
X121412000Y-85852000D02*
X120904000Y-85344000D01*
%TO.N,unconnected-(J1-Pada22)*%
X116839000Y-113029000D02*
X116839000Y-104776000D01*
X118110000Y-114300000D02*
X116839000Y-113029000D01*
X116839000Y-104776000D02*
X116840000Y-104775000D01*
%TO.N,/A16*%
X126124900Y-87884000D02*
X124988200Y-89020700D01*
X125008700Y-105993700D02*
X125776100Y-106761100D01*
X173228000Y-76200000D02*
X171196000Y-76200000D01*
X125776100Y-106761100D02*
X125851900Y-106761100D01*
X125203300Y-96536000D02*
X125203300Y-105178500D01*
X174244000Y-77216000D02*
X173228000Y-76200000D01*
X127650000Y-87884000D02*
X126124900Y-87884000D01*
X174244000Y-91440000D02*
X174244000Y-77216000D01*
X125203300Y-105178500D02*
X125008700Y-105373100D01*
X166365000Y-97534900D02*
X166174400Y-97534900D01*
X166174400Y-97534900D02*
X164638000Y-95998500D01*
X114458700Y-109898500D02*
X116079000Y-108278200D01*
X124988200Y-89020700D02*
X124988200Y-96320900D01*
X124988200Y-96320900D02*
X125203300Y-96536000D01*
X115570000Y-114300000D02*
X114458700Y-113188700D01*
X164638000Y-95998500D02*
X164638000Y-94881000D01*
X166365000Y-99060000D02*
X166365000Y-97534900D01*
X114458700Y-113188700D02*
X114458700Y-109898500D01*
X164638000Y-94881000D02*
X166328600Y-93190400D01*
X125008700Y-105373100D02*
X125008700Y-105993700D01*
X166328600Y-93190400D02*
X166328600Y-89326100D01*
%TO.N,/A17*%
X163830000Y-86360000D02*
X163830000Y-97529900D01*
X163830000Y-97529900D02*
X163825000Y-97534900D01*
X148590000Y-109474000D02*
X148590000Y-93726000D01*
X163825000Y-99060000D02*
X163825000Y-97534900D01*
%TO.N,/A19*%
X107950000Y-114300000D02*
X109389800Y-112860200D01*
X116122200Y-102964100D02*
X117347500Y-102964100D01*
X109389800Y-109696500D02*
X116122200Y-102964100D01*
X117347500Y-102964100D02*
X117347500Y-102964000D01*
X109389800Y-112860200D02*
X109389800Y-109696500D01*
%TO.N,/D7*%
X97155000Y-69200000D02*
X97155000Y-75169000D01*
X104140000Y-113030000D02*
X105410000Y-114300000D01*
X157480000Y-77470000D02*
X157480000Y-76200000D01*
X97155000Y-103759000D02*
X104140000Y-110744000D01*
X95265000Y-67310000D02*
X97155000Y-69200000D01*
X97155000Y-75628300D02*
X97155000Y-76326500D01*
X156210000Y-78740000D02*
X157480000Y-77470000D01*
X97155000Y-75169000D02*
X97155000Y-75628300D01*
X104140000Y-110744000D02*
X104140000Y-113030000D01*
X97155000Y-76326500D02*
X97155000Y-103759000D01*
X97155000Y-75628300D02*
X97155000Y-76326500D01*
%TO.N,/D6*%
X158750000Y-96220000D02*
X157330000Y-97640000D01*
X102870000Y-114300000D02*
X101600000Y-113030000D01*
X93726000Y-63500000D02*
X96520000Y-63500000D01*
X96520000Y-63500000D02*
X97790000Y-64770000D01*
X160020000Y-76200000D02*
X160020000Y-88610000D01*
X101600000Y-113030000D02*
X101600000Y-109728000D01*
X158750000Y-89880000D02*
X158750000Y-96220000D01*
X114300000Y-96520000D02*
X114300000Y-67310000D01*
X101600000Y-109728000D02*
X92710000Y-100838000D01*
X97790000Y-64770000D02*
X99060000Y-64770000D01*
X157330000Y-101750000D02*
X157226000Y-101854000D01*
X114935000Y-97155000D02*
X114300000Y-96520000D01*
X157330000Y-97640000D02*
X157330000Y-101750000D01*
X92710000Y-64516000D02*
X93726000Y-63500000D01*
X92710000Y-100838000D02*
X92710000Y-64516000D01*
X160020000Y-88610000D02*
X158750000Y-89880000D01*
%TO.N,/D5*%
X162560000Y-71374000D02*
X159766000Y-68580000D01*
X159766000Y-68580000D02*
X149098000Y-68580000D01*
X91694000Y-102362000D02*
X91694000Y-51308000D01*
X130556000Y-66040000D02*
X129286000Y-67310000D01*
X91694000Y-51308000D02*
X92964000Y-50038000D01*
X124206000Y-62230000D02*
X121666000Y-64770000D01*
X99060000Y-113030000D02*
X99060000Y-109728000D01*
X123190000Y-50038000D02*
X124206000Y-51054000D01*
X99060000Y-109728000D02*
X91694000Y-102362000D01*
X162560000Y-76200000D02*
X162560000Y-71374000D01*
X149098000Y-68580000D02*
X146558000Y-66040000D01*
X92964000Y-50038000D02*
X123190000Y-50038000D01*
X100330000Y-114300000D02*
X99060000Y-113030000D01*
X124206000Y-51054000D02*
X124206000Y-62230000D01*
X146558000Y-66040000D02*
X130556000Y-66040000D01*
%TO.N,/D4*%
X90678000Y-50800000D02*
X90620000Y-104394000D01*
X165100000Y-72898000D02*
X165100000Y-76200000D01*
X142748000Y-63754000D02*
X142748000Y-50038000D01*
X165354000Y-66040000D02*
X166370000Y-67056000D01*
X90620000Y-104394000D02*
X96520000Y-110294000D01*
X92964000Y-48514000D02*
X90678000Y-50800000D01*
X96520000Y-110294000D02*
X96520000Y-113030000D01*
X141224000Y-48514000D02*
X92964000Y-48514000D01*
X153670000Y-66040000D02*
X165354000Y-66040000D01*
X142748000Y-50038000D02*
X141224000Y-48514000D01*
X166370000Y-67056000D02*
X166370000Y-71628000D01*
X143764000Y-64770000D02*
X142748000Y-63754000D01*
X166370000Y-71628000D02*
X165100000Y-72898000D01*
X152400000Y-67310000D02*
X153670000Y-66040000D01*
X96520000Y-113030000D02*
X97790000Y-114300000D01*
X144780000Y-64770000D02*
X143764000Y-64770000D01*
%TO.N,/D3*%
X168163000Y-64755000D02*
X167371000Y-64755000D01*
X169688100Y-65294100D02*
X169791500Y-65397500D01*
X169688100Y-65294100D02*
X169688100Y-64755000D01*
X170434000Y-70612000D02*
X167640000Y-73406000D01*
X93980000Y-113030000D02*
X95250000Y-114300000D01*
X169791500Y-65397500D02*
X170434000Y-66040000D01*
X89662000Y-105918000D02*
X93980000Y-110236000D01*
X167371000Y-64755000D02*
X166116000Y-63500000D01*
X170434000Y-66040000D02*
X170434000Y-70612000D01*
X93980000Y-110236000D02*
X93980000Y-113030000D01*
X166116000Y-48260000D02*
X164846000Y-46990000D01*
X168163000Y-64755000D02*
X169688100Y-64755000D01*
X169149000Y-64755000D02*
X169688100Y-65294100D01*
X167640000Y-73406000D02*
X167640000Y-76200000D01*
X89662000Y-50292000D02*
X89662000Y-105918000D01*
X92710000Y-46990000D02*
X89662000Y-50292000D01*
X164846000Y-46990000D02*
X92710000Y-46990000D01*
X166116000Y-63500000D02*
X166116000Y-48260000D01*
%TO.N,/A2*%
X152400000Y-91440000D02*
X152400000Y-95250000D01*
X152400000Y-91440000D02*
X152400000Y-89138400D01*
X151765000Y-107315000D02*
X153670000Y-109220000D01*
X151407300Y-88145700D02*
X149630900Y-88145700D01*
X153670000Y-109220000D02*
X153670000Y-111760000D01*
X151765000Y-95885000D02*
X151765000Y-107315000D01*
X149630900Y-88145700D02*
X149419200Y-88357400D01*
X152400000Y-89138400D02*
X151407300Y-88145700D01*
X152400000Y-95250000D02*
X151765000Y-95885000D01*
%TO.N,/A1*%
X151130000Y-111760000D02*
X151130000Y-88900000D01*
%TO.N,/A0*%
X146050000Y-111760000D02*
X146050000Y-95250000D01*
X157480000Y-91440000D02*
X157480000Y-93980000D01*
%TO.N,/VPA*%
X130810000Y-111760000D02*
X130810000Y-112396700D01*
X130810000Y-112396700D02*
X132080000Y-113666700D01*
X111760000Y-106045000D02*
X111760000Y-101600000D01*
X132080000Y-113666700D02*
X132080000Y-116840000D01*
X106680000Y-111125000D02*
X111760000Y-106045000D01*
X106680000Y-116205000D02*
X106680000Y-111125000D01*
X111760000Y-101600000D02*
X109220000Y-99060000D01*
X109220000Y-99060000D02*
X109220000Y-97790000D01*
%TO.N,/A15*%
X166370000Y-116840000D02*
X167640000Y-115570000D01*
X118110000Y-107315000D02*
X118110000Y-89804000D01*
X162699800Y-100215800D02*
X167640000Y-105156000D01*
X167640000Y-105156000D02*
X168905000Y-103891000D01*
X167640000Y-115570000D02*
X167640000Y-113538000D01*
X167640000Y-113538000D02*
X168148000Y-113030000D01*
X168148000Y-113030000D02*
X169672000Y-113030000D01*
X118110000Y-111760000D02*
X118110000Y-107315000D01*
X168905000Y-103891000D02*
X168905000Y-99060000D01*
X170180000Y-112522000D02*
X170180000Y-110998000D01*
X167640000Y-108458000D02*
X167640000Y-105156000D01*
X162699800Y-96251700D02*
X162699800Y-100215800D01*
X118110000Y-89804000D02*
X120030000Y-87884000D01*
X161290000Y-116840000D02*
X166370000Y-116840000D01*
X161397200Y-84967900D02*
X161397200Y-94949100D01*
X169672000Y-113030000D02*
X170180000Y-112522000D01*
X170180000Y-110998000D02*
X167640000Y-108458000D01*
X161397200Y-94949100D02*
X162699800Y-96251700D01*
%TO.N,/RW*%
X127000000Y-71120000D02*
X127000000Y-66040000D01*
X116584900Y-64770000D02*
X116584900Y-101864800D01*
X130810000Y-74930000D02*
X127000000Y-71120000D01*
X130810000Y-77470000D02*
X130810000Y-74930000D01*
X129286000Y-64770000D02*
X128270000Y-64770000D01*
X118110000Y-64770000D02*
X116584900Y-64770000D01*
X116584900Y-101864800D02*
X107950000Y-110499700D01*
X127000000Y-66040000D02*
X128270000Y-64770000D01*
X107950000Y-110499700D02*
X107950000Y-111760000D01*
%TO.N,/DS*%
X109220000Y-107315000D02*
X110490000Y-106045000D01*
X105410000Y-111760000D02*
X105410000Y-109855000D01*
X105410000Y-109855000D02*
X107950000Y-107315000D01*
X107950000Y-107315000D02*
X109220000Y-107315000D01*
X110490000Y-106045000D02*
X110490000Y-104140000D01*
%TO.N,/D0*%
X108204000Y-53340000D02*
X108712000Y-53848000D01*
X100330000Y-111760000D02*
X100330000Y-109728000D01*
X92202000Y-101600000D02*
X92202000Y-54864000D01*
X92202000Y-54864000D02*
X93726000Y-53340000D01*
X110490000Y-64770000D02*
X110236000Y-64770000D01*
X108712000Y-53848000D02*
X108712000Y-63246000D01*
X108712000Y-63246000D02*
X110236000Y-64770000D01*
X124460000Y-66040000D02*
X124460000Y-97155000D01*
X100330000Y-109728000D02*
X92202000Y-101600000D01*
X160020000Y-91440000D02*
X160020000Y-93980000D01*
X93726000Y-53340000D02*
X108204000Y-53340000D01*
%TO.N,/D1*%
X91186000Y-103378000D02*
X91186000Y-51054000D01*
X131318000Y-51054000D02*
X131318000Y-63500000D01*
X131953000Y-64135000D02*
X132461000Y-64135000D01*
X140716000Y-67310000D02*
X142131000Y-68725000D01*
X131953000Y-64135000D02*
X132588000Y-64770000D01*
X131318000Y-63500000D02*
X131953000Y-64135000D01*
X145941000Y-68725000D02*
X148590000Y-71374000D01*
X129540000Y-49276000D02*
X131318000Y-51054000D01*
X97790000Y-111760000D02*
X97790000Y-109982000D01*
X92964000Y-49276000D02*
X129540000Y-49276000D01*
X161290000Y-72898000D02*
X161290000Y-83820000D01*
X161290000Y-83820000D02*
X162560000Y-85090000D01*
X148590000Y-71374000D02*
X159766000Y-71374000D01*
X159766000Y-71374000D02*
X161290000Y-72898000D01*
X142131000Y-68725000D02*
X145941000Y-68725000D01*
X91186000Y-51054000D02*
X92964000Y-49276000D01*
X97790000Y-109982000D02*
X91186000Y-103378000D01*
X162560000Y-85090000D02*
X162560000Y-91440000D01*
X132461000Y-64135000D02*
X133096000Y-64770000D01*
%TO.N,/D2*%
X153104000Y-47694000D02*
X92964000Y-47694000D01*
X165100000Y-91440000D02*
X165100000Y-84836000D01*
X155448000Y-64770000D02*
X154432000Y-63754000D01*
X165354000Y-67818000D02*
X164846000Y-67310000D01*
X165862000Y-68326000D02*
X165354000Y-67818000D01*
X163830000Y-83566000D02*
X163830000Y-72644000D01*
X163830000Y-72644000D02*
X165862000Y-70612000D01*
X164592000Y-67818000D02*
X164084000Y-67310000D01*
X92964000Y-47694000D02*
X90170000Y-50546000D01*
X165100000Y-84836000D02*
X163830000Y-83566000D01*
X154432000Y-63754000D02*
X154432000Y-49022000D01*
X154432000Y-49022000D02*
X153104000Y-47694000D01*
X90170000Y-105156000D02*
X95250000Y-110236000D01*
X165354000Y-67818000D02*
X164592000Y-67818000D01*
X95250000Y-110236000D02*
X95250000Y-111760000D01*
X90170000Y-50546000D02*
X90170000Y-105156000D01*
X156464000Y-64770000D02*
X155448000Y-64770000D01*
X165862000Y-70612000D02*
X165862000Y-68326000D01*
%TO.N,/SP0*%
X178816000Y-91440000D02*
X179832000Y-92456000D01*
X179832000Y-92456000D02*
X179832000Y-110744000D01*
%TO.N,/SP1*%
X179832000Y-81280000D02*
X180341100Y-81789100D01*
X181102000Y-82550000D02*
X181102000Y-111760000D01*
X180341100Y-81789100D02*
X180467000Y-81915000D01*
X180341100Y-81789100D02*
X180341100Y-81280000D01*
X180467000Y-81915000D02*
X181102000Y-82550000D01*
X178816000Y-81280000D02*
X180341100Y-81280000D01*
%TO.N,/SP2*%
X168275000Y-93980000D02*
X168275000Y-95885000D01*
X162560000Y-108204000D02*
X162560000Y-101600000D01*
X173482000Y-92710000D02*
X172720000Y-93472000D01*
X164592000Y-113030000D02*
X165100000Y-112522000D01*
X172466000Y-78740000D02*
X173482000Y-79756000D01*
X172720000Y-93472000D02*
X168783000Y-93472000D01*
X168275000Y-95885000D02*
X170180000Y-97790000D01*
X173482000Y-79756000D02*
X173482000Y-92710000D01*
X156210000Y-114300000D02*
X157480000Y-113030000D01*
X171196000Y-78740000D02*
X172466000Y-78740000D01*
X170180000Y-97790000D02*
X170180000Y-108712000D01*
X165100000Y-112522000D02*
X165100000Y-110744000D01*
X170180000Y-108712000D02*
X170184000Y-108708000D01*
X168783000Y-93472000D02*
X168275000Y-93980000D01*
X165100000Y-110744000D02*
X162560000Y-108204000D01*
X157480000Y-113030000D02*
X164592000Y-113030000D01*
%TO.N,/SP3*%
X176901400Y-101143300D02*
X177658100Y-100386600D01*
X177658100Y-100386600D02*
X177658100Y-93898600D01*
X177658100Y-93898600D02*
X176946600Y-93187100D01*
%TO.N,/VPA_TR*%
X162766400Y-101125700D02*
X165784600Y-104143900D01*
X165784600Y-104143900D02*
X165784600Y-104867300D01*
X152400000Y-101694000D02*
X152400000Y-97155000D01*
X152767500Y-96787500D02*
X153430500Y-96787500D01*
X152940000Y-102235000D02*
X152400000Y-101694000D01*
X157788800Y-102523400D02*
X159186500Y-101125700D01*
X154935000Y-98292000D02*
X154935000Y-100390400D01*
X156210000Y-93345000D02*
X156210000Y-88900000D01*
X152400000Y-97155000D02*
X152767500Y-96787500D01*
X159186500Y-101125700D02*
X162766400Y-101125700D01*
X157068000Y-102523400D02*
X157788800Y-102523400D01*
X152767500Y-96787500D02*
X156210000Y-93345000D01*
X154935000Y-100390400D02*
X157068000Y-102523400D01*
X153430500Y-96787500D02*
X154935000Y-98292000D01*
%TO.N,Net-(R1-Pad2)*%
X169545000Y-94615000D02*
X170180000Y-93980000D01*
X170180000Y-93980000D02*
X173355000Y-93980000D01*
X171445000Y-99060000D02*
X171445000Y-97785000D01*
X171445000Y-97785000D02*
X169545000Y-95885000D01*
X169545000Y-95885000D02*
X169545000Y-94615000D01*
X169670900Y-83820000D02*
X169670900Y-81280000D01*
X173355000Y-93980000D02*
X175260000Y-92075000D01*
X175260000Y-83820000D02*
X175058000Y-83820000D01*
X171196000Y-83820000D02*
X169670900Y-83820000D01*
X171196000Y-81280000D02*
X169670900Y-81280000D01*
X175260000Y-92075000D02*
X175260000Y-83820000D01*
%TO.N,/CAS*%
X169025400Y-92319400D02*
X167490100Y-93854700D01*
X169025400Y-74518300D02*
X169025400Y-92319400D01*
X167490100Y-93854700D02*
X167490100Y-103204700D01*
X171278900Y-66847100D02*
X171278900Y-72264800D01*
X171278900Y-72264800D02*
X169025400Y-74518300D01*
%TO.N,/RAS*%
X173990000Y-110490000D02*
X171958000Y-110490000D01*
X177038000Y-92202000D02*
X178307000Y-93471000D01*
X175260000Y-104140000D02*
X175260000Y-109220000D01*
X115570000Y-64135000D02*
X117475000Y-62230000D01*
X175783000Y-62215000D02*
X177546000Y-63978000D01*
X175260000Y-109220000D02*
X173990000Y-110490000D01*
X177038000Y-74168000D02*
X177038000Y-92202000D01*
X177546000Y-63978000D02*
X177546000Y-73660000D01*
X170942000Y-109474000D02*
X169926000Y-109474000D01*
X115570000Y-93345000D02*
X115570000Y-95250000D01*
X177546000Y-73660000D02*
X177038000Y-74168000D01*
X178307000Y-93471000D02*
X178307000Y-101093000D01*
X178307000Y-101093000D02*
X175260000Y-104140000D01*
X115570000Y-93345000D02*
X115570000Y-64135000D01*
X168905000Y-108453000D02*
X168905000Y-106680000D01*
X171958000Y-110490000D02*
X170942000Y-109474000D01*
X175783000Y-62215000D02*
X177023000Y-62215000D01*
X118110000Y-62230000D02*
X117475000Y-62230000D01*
X169926000Y-109474000D02*
X168905000Y-108453000D01*
%TO.N,/MA1*%
X125730000Y-72644000D02*
X126365000Y-72009000D01*
X125730000Y-76835000D02*
X125730000Y-72644000D01*
X126174500Y-77279500D02*
X125730000Y-76835000D01*
X126174500Y-77279500D02*
X127205500Y-77279500D01*
X127205500Y-77279500D02*
X127650000Y-77724000D01*
X126365000Y-60071000D02*
X129286000Y-57150000D01*
X126619000Y-77724000D02*
X126174500Y-77279500D01*
X126365000Y-72009000D02*
X126365000Y-60071000D01*
%TO.N,/MA2*%
X125222000Y-56642000D02*
X125222000Y-84074000D01*
X126492000Y-85344000D02*
X127254000Y-85344000D01*
X127254000Y-85344000D02*
X127650000Y-85344000D01*
X129286000Y-54610000D02*
X127254000Y-54610000D01*
X125222000Y-84074000D02*
X126492000Y-85344000D01*
X127254000Y-54610000D02*
X125222000Y-56642000D01*
%TO.N,/MA3*%
X110490000Y-59690000D02*
X112776000Y-61976000D01*
X112776000Y-71628000D02*
X110998000Y-73406000D01*
X109235000Y-75946000D02*
X109220000Y-75946000D01*
X112776000Y-61976000D02*
X112776000Y-71628000D01*
X109235000Y-73899000D02*
X109235000Y-75946000D01*
X110998000Y-77709000D02*
X109235000Y-75946000D01*
X109728000Y-73406000D02*
X109235000Y-73899000D01*
X110998000Y-73406000D02*
X109728000Y-73406000D01*
%TO.N,/MA4*%
X110490000Y-57150000D02*
X113538000Y-60198000D01*
X113538000Y-82789000D02*
X110998000Y-85329000D01*
X113538000Y-60198000D02*
X113538000Y-82789000D01*
%TO.N,/MA5*%
X120141000Y-57657000D02*
X120142000Y-57658000D01*
X120141000Y-56135000D02*
X120141000Y-57657000D01*
X120141000Y-57659000D02*
X120141000Y-72137000D01*
X120142000Y-57658000D02*
X120141000Y-57659000D01*
X120141000Y-72137000D02*
X120030000Y-72248000D01*
X120030000Y-72248000D02*
X120030000Y-75184000D01*
X121666000Y-54610000D02*
X120141000Y-56135000D01*
%TO.N,/MA6*%
X103378000Y-75169000D02*
X103378000Y-62992000D01*
X103378000Y-62992000D02*
X102616000Y-62230000D01*
X102616000Y-62230000D02*
X99060000Y-62230000D01*
%TO.N,/MA7*%
X119691000Y-71571000D02*
X119691000Y-54045000D01*
X120030000Y-82804000D02*
X117475000Y-80249000D01*
X117475000Y-73787000D02*
X119691000Y-71571000D01*
X117475000Y-80249000D02*
X117475000Y-73787000D01*
X119691000Y-54045000D02*
X121666000Y-52070000D01*
%TO.N,/MA8*%
X175783000Y-94219000D02*
X175260000Y-94742000D01*
X173990000Y-103632000D02*
X173990000Y-104648000D01*
X173985000Y-103637000D02*
X173990000Y-103632000D01*
X175260000Y-102362000D02*
X173990000Y-103632000D01*
X173985000Y-106680000D02*
X173985000Y-103637000D01*
X175783000Y-69835000D02*
X175783000Y-94219000D01*
X175260000Y-94742000D02*
X175260000Y-102362000D01*
%TO.N,Net-(D2-Pad1)*%
X158745000Y-106680000D02*
X158745000Y-108717000D01*
X157988000Y-109474000D02*
X154940000Y-109474000D01*
X158745000Y-108717000D02*
X157988000Y-109474000D01*
%TO.N,/MA0*%
X104663000Y-82789000D02*
X103378000Y-82789000D01*
X106680000Y-59690000D02*
X105156000Y-59690000D01*
X105155000Y-59691000D02*
X105155000Y-82297000D01*
X105156000Y-59690000D02*
X105155000Y-59691000D01*
X103378000Y-82789000D02*
X102123000Y-82789000D01*
X105154000Y-59690000D02*
X105155000Y-59691000D01*
X105155000Y-82297000D02*
X104663000Y-82789000D01*
%TO.N,Net-(R2-Pad1)*%
X156205000Y-105151000D02*
X155194000Y-104140000D01*
X155194000Y-104140000D02*
X155194000Y-101854000D01*
X156205000Y-106680000D02*
X156205000Y-105151000D01*
%TO.N,Net-(D1-Pad1)*%
X165862000Y-109474000D02*
X165862000Y-108712000D01*
X166370000Y-108204000D02*
X166365000Y-108199000D01*
X166365000Y-108199000D02*
X166365000Y-106680000D01*
X165862000Y-108712000D02*
X166370000Y-108204000D01*
%TD*%
M02*
